<?xml version="1.0" encoding="utf-8"?>
<!-- Generator: Adobe Illustrator 17.0.0, SVG Export Plug-In . SVG Version: 6.00 Build 0)  -->
<!DOCTYPE svg PUBLIC "-//W3C//DTD SVG 1.1//EN" "http://www.w3.org/Graphics/SVG/1.1/DTD/svg11.dtd">
<svg version="1.1" id="Capa_1" xmlns="http://www.w3.org/2000/svg" xmlns:xlink="http://www.w3.org/1999/xlink" x="0px" y="0px"
	 width="909.496px" height="309.898px" viewBox="0 0.023 909.496 309.898" enable-background="new 0 0.023 909.496 309.898"
	 xml:space="preserve">
<g>
	<path fill="#FFFFFF" d="M286.165,160.444"/>
</g>
<g>
	<path fill="#FFFFFF" d="M455.093,308.52c-1.943,0-3.519-1.576-3.519-3.519v-14.075c0-1.943,1.576-3.519,3.519-3.519
		c1.943,0,3.519,1.576,3.519,3.519v14.075C458.612,306.944,457.037,308.52,455.093,308.52z M455.093,280.368
		c-1.943,0-3.519-1.576-3.519-3.519v-14.075c0-1.943,1.576-3.519,3.519-3.519c1.943,0,3.519,1.576,3.519,3.519v14.075
		C458.612,278.793,457.037,280.368,455.093,280.368z M455.093,252.217c-1.943,0-3.519-1.576-3.519-3.519v-14.075
		c0-1.943,1.576-3.519,3.519-3.519c1.943,0,3.519,1.576,3.519,3.519v14.075C458.612,250.641,457.037,252.217,455.093,252.217z
		 M455.093,224.066c-1.943,0-3.519-1.576-3.519-3.519v-14.075c0-1.943,1.576-3.519,3.519-3.519c1.943,0,3.519,1.576,3.519,3.519
		v14.075C458.612,222.49,457.037,224.066,455.093,224.066z M455.093,195.914c-1.943,0-3.519-1.576-3.519-3.519V178.32
		c0-1.943,1.576-3.519,3.519-3.519c1.943,0,3.519,1.576,3.519,3.519v14.075C458.612,194.339,457.037,195.914,455.093,195.914z
		 M455.093,167.763c-1.943,0-3.519-1.576-3.519-3.519v-14.075c0-1.943,1.576-3.519,3.519-3.519c1.943,0,3.519,1.576,3.519,3.519
		v14.075C458.612,166.187,457.037,167.763,455.093,167.763z M455.093,139.612c-1.943,0-3.519-1.576-3.519-3.519v-14.075
		c0-1.943,1.576-3.519,3.519-3.519c1.943,0,3.519,1.576,3.519,3.519v14.075C458.612,138.036,457.037,139.612,455.093,139.612z
		 M455.093,111.46c-1.943,0-3.519-1.576-3.519-3.519V93.865c0-1.943,1.576-3.519,3.519-3.519c1.943,0,3.519,1.576,3.519,3.519
		v14.075C458.612,109.885,457.037,111.46,455.093,111.46z M398.653,106.697c-1.943,0-3.519-1.576-3.519-3.519v-1.027
		c0-1.943,1.576-3.519,3.519-3.519s3.519,1.576,3.519,3.519v1.027C402.173,105.121,400.597,106.697,398.653,106.697z
		 M398.653,91.594c-1.943,0-3.519-1.576-3.519-3.519V73.999c0-1.943,1.576-3.519,3.519-3.519s3.519,1.576,3.519,3.519v14.075
		C402.173,90.019,400.597,91.594,398.653,91.594z M455.093,83.309c-1.943,0-3.519-1.576-3.519-3.519V65.715
		c0-1.943,1.576-3.519,3.519-3.519c1.943,0,3.519,1.576,3.519,3.519V79.79C458.612,81.733,457.037,83.309,455.093,83.309z
		 M398.653,63.443c-1.943,0-3.519-1.576-3.519-3.519v-8.176c0-2.198,0.21-4.397,0.626-6.534c0.372-1.907,2.219-3.147,4.126-2.782
		c1.907,0.371,3.153,2.218,2.782,4.126c-0.33,1.696-0.497,3.444-0.497,5.19v8.176C402.173,61.867,400.597,63.443,398.653,63.443z
		 M455.093,55.158c-1.942,0-3.518-1.572-3.519-3.516c-0.004-4.184-0.984-8.328-2.835-11.984c-0.877-1.736-0.183-3.853,1.552-4.728
		c1.733-0.879,3.849-0.184,4.728,1.55c2.344,4.636,3.588,9.876,3.593,15.157c0.002,1.943-1.572,3.521-3.516,3.523L455.093,55.158
		L455.093,55.158z M404.997,36.721c-0.76,0-1.527-0.246-2.172-0.752c-1.528-1.2-1.793-3.413-0.592-4.94
		c3.297-4.196,7.579-7.51,12.386-9.584c1.781-0.771,3.853,0.048,4.625,1.835c0.769,1.785-0.052,3.856-1.837,4.625
		c-3.733,1.612-7.066,4.196-9.64,7.47C407.073,36.258,406.041,36.721,404.997,36.721z M442.792,31.02
		c-0.702,0-1.411-0.21-2.028-0.644c-3.367-2.38-7.294-3.861-11.356-4.285c-1.933-0.201-3.336-1.933-3.134-3.866
		c0.203-1.931,1.925-3.316,3.865-3.134c5.259,0.548,10.339,2.464,14.689,5.536c1.587,1.122,1.965,3.317,0.842,4.905
		C444.984,30.503,443.897,31.02,442.792,31.02z"/>
</g>
<g>
	<path fill="#FFFFFF" d="M60.031,308.52c-1.943,0-3.519-1.576-3.519-3.519v-14.075c0-1.943,1.576-3.519,3.519-3.519
		s3.519,1.576,3.519,3.519v14.075C63.551,306.944,61.975,308.52,60.031,308.52z M60.031,280.368c-1.943,0-3.519-1.576-3.519-3.519
		v-14.075c0-1.943,1.576-3.519,3.519-3.519s3.519,1.576,3.519,3.519v14.075C63.551,278.793,61.975,280.368,60.031,280.368z
		 M60.031,252.217c-1.943,0-3.519-1.576-3.519-3.519v-14.075c0-1.943,1.576-3.519,3.519-3.519s3.519,1.576,3.519,3.519v14.075
		C63.551,250.641,61.975,252.217,60.031,252.217z M60.031,224.066c-1.943,0-3.519-1.576-3.519-3.519v-14.075
		c0-1.943,1.576-3.519,3.519-3.519s3.519,1.576,3.519,3.519v14.075C63.551,222.49,61.975,224.066,60.031,224.066z M60.031,195.914
		c-1.943,0-3.519-1.576-3.519-3.519V178.32c0-1.943,1.576-3.519,3.519-3.519s3.519,1.576,3.519,3.519v14.075
		C63.551,194.339,61.975,195.914,60.031,195.914z M60.031,167.763c-1.943,0-3.519-1.576-3.519-3.519v-14.075
		c0-1.943,1.576-3.519,3.519-3.519s3.519,1.576,3.519,3.519v14.075C63.551,166.187,61.975,167.763,60.031,167.763z M60.031,139.612
		c-1.943,0-3.519-1.576-3.519-3.519v-14.075c0-1.943,1.576-3.519,3.519-3.519s3.519,1.576,3.519,3.519v14.075
		C63.551,138.036,61.975,139.612,60.031,139.612z M60.031,111.46c-1.943,0-3.519-1.576-3.519-3.519V93.865
		c0-1.943,1.576-3.519,3.519-3.519s3.519,1.576,3.519,3.519v14.075C63.551,109.885,61.975,111.46,60.031,111.46z M3.592,106.697
		c-1.943,0-3.519-1.576-3.519-3.519v-1.027c0-1.943,1.576-3.519,3.519-3.519s3.519,1.576,3.519,3.519v1.027
		C7.112,105.121,5.536,106.697,3.592,106.697z M3.592,91.594c-1.943,0-3.519-1.576-3.519-3.519V73.999
		c0-1.943,1.576-3.519,3.519-3.519s3.519,1.576,3.519,3.519v14.075C7.112,90.019,5.536,91.594,3.592,91.594z M60.031,83.309
		c-1.943,0-3.519-1.576-3.519-3.519V65.715c0-1.943,1.576-3.519,3.519-3.519s3.519,1.576,3.519,3.519V79.79
		C63.551,81.733,61.975,83.309,60.031,83.309z M3.592,63.443c-1.943,0-3.519-1.576-3.519-3.519v-8.176
		c0-2.198,0.21-4.397,0.626-6.534c0.371-1.907,2.217-3.147,4.126-2.782c1.907,0.371,3.153,2.218,2.782,4.126
		c-0.33,1.696-0.497,3.444-0.497,5.19v8.176C7.112,61.867,5.536,63.443,3.592,63.443z M60.031,55.158
		c-1.942,0-3.518-1.572-3.519-3.516c-0.004-4.184-0.984-8.328-2.835-11.984c-0.877-1.736-0.183-3.853,1.552-4.728
		c1.734-0.879,3.85-0.184,4.728,1.55c2.344,4.636,3.588,9.876,3.593,15.157c0.002,1.943-1.572,3.521-3.516,3.523L60.031,55.158
		L60.031,55.158z M9.936,36.721c-0.76,0-1.527-0.246-2.172-0.752c-1.528-1.2-1.793-3.413-0.593-4.94
		c3.296-4.196,7.579-7.51,12.386-9.584c1.782-0.771,3.854,0.048,4.625,1.835c0.769,1.785-0.052,3.856-1.837,4.625
		c-3.733,1.612-7.066,4.196-9.64,7.47C12.012,36.258,10.979,36.721,9.936,36.721z M47.732,31.02c-0.702,0-1.411-0.21-2.028-0.644
		c-3.365-2.378-7.292-3.859-11.358-4.285c-1.932-0.203-3.336-1.933-3.133-3.866c0.204-1.935,1.938-3.321,3.867-3.134
		c5.261,0.551,10.34,2.466,14.687,5.536c1.587,1.122,1.965,3.317,0.842,4.905C49.924,30.503,48.836,31.02,47.732,31.02z"/>
</g>
<g>
	<path fill="#FFFFFF" d="M370.554,244.703c-3.595,0-7.116-0.608-10.468-1.809c-1.83-0.654-2.782-2.67-2.126-4.5
		c0.654-1.828,2.672-2.782,4.499-2.125c3.836,1.373,8.065,1.746,12.093,1.063c1.91-0.316,3.731,0.97,4.054,2.886
		c0.323,1.916-0.969,3.732-2.885,4.055C374.024,244.559,372.287,244.703,370.554,244.703z M387.828,238.599
		c-1.03,0-2.051-0.45-2.745-1.315c-1.218-1.516-0.976-3.731,0.538-4.947c3.189-2.563,5.756-5.937,7.421-9.754
		c0.776-1.782,2.849-2.593,4.632-1.818c1.781,0.776,2.595,2.85,1.818,4.632c-2.118,4.856-5.39,9.151-9.462,12.425
		C389.379,238.344,388.601,238.599,387.828,238.599z M349.756,235.27c-0.971,0-1.938-0.4-2.634-1.184
		c-3.468-3.913-5.985-8.686-7.277-13.804c-0.476-1.885,0.665-3.799,2.55-4.275c1.882-0.464,3.798,0.666,4.273,2.55
		c1.018,4.033,2.997,7.787,5.721,10.859c1.29,1.456,1.156,3.679-0.299,4.967C351.421,234.978,350.588,235.27,349.756,235.27z
		 M398.773,213.78c-1.943,0-3.519-1.576-3.519-3.519v-14.075c0-1.943,1.576-3.519,3.519-3.519c1.943,0,3.519,1.576,3.519,3.519
		v14.075C402.291,212.205,400.715,213.78,398.773,213.78z M342.335,208.942c-1.943,0-3.519-1.576-3.519-3.519v-14.075
		c0-1.943,1.576-3.519,3.519-3.519c1.943,0,3.519,1.576,3.519,3.519v14.075C345.854,207.366,344.278,208.942,342.335,208.942z
		 M398.773,185.629c-1.943,0-3.519-1.576-3.519-3.519v-14.075c0-1.943,1.576-3.519,3.519-3.519c1.943,0,3.519,1.576,3.519,3.519
		v14.075C402.291,184.053,400.715,185.629,398.773,185.629z M342.335,180.79c-1.943,0-3.519-1.576-3.519-3.519v-14.075
		c0-1.943,1.576-3.519,3.519-3.519c1.943,0,3.519,1.576,3.519,3.519v14.075C345.854,179.215,344.278,180.79,342.335,180.79z
		 M342.335,152.639c-1.943,0-3.519-1.576-3.519-3.519v-14.075c0-1.943,1.576-3.519,3.519-3.519c1.943,0,3.519,1.576,3.519,3.519
		v14.075C345.854,151.063,344.278,152.639,342.335,152.639z M342.335,124.488c-1.943,0-3.519-1.576-3.519-3.519v-14.075
		c0-1.943,1.576-3.519,3.519-3.519c1.943,0,3.519,1.576,3.519,3.519v14.075C345.854,122.912,344.278,124.488,342.335,124.488z
		 M342.335,96.336c-1.943,0-3.519-1.576-3.519-3.519V78.742c0-1.943,1.576-3.519,3.519-3.519c1.943,0,3.519,1.576,3.519,3.519
		v14.075C345.854,94.761,344.278,96.336,342.335,96.336z M342.335,68.185c-1.943,0-3.519-1.576-3.519-3.519V50.591
		c0-1.943,1.576-3.519,3.519-3.519c1.943,0,3.519,1.576,3.519,3.519v14.075C345.854,66.609,344.278,68.185,342.335,68.185z
		 M342.335,40.034c-1.943,0-3.519-1.576-3.519-3.519V22.439c0-1.943,1.576-3.519,3.519-3.519c1.943,0,3.519,1.576,3.519,3.519
		v14.075C345.854,38.458,344.278,40.034,342.335,40.034z"/>
</g>
<g>
	<path fill="#FFFFFF" d="M144.664,310.068c-3.595,0-7.116-0.608-10.468-1.809c-1.83-0.654-2.782-2.67-2.126-4.5
		c0.654-1.83,2.672-2.785,4.499-2.125c3.835,1.373,8.063,1.744,12.093,1.063c1.914-0.326,3.731,0.97,4.054,2.886
		s-0.969,3.732-2.885,4.055C148.135,309.924,146.397,310.068,144.664,310.068z M161.937,303.963c-1.03,0-2.051-0.45-2.745-1.315
		c-1.218-1.516-0.976-3.731,0.538-4.947c3.189-2.563,5.756-5.937,7.421-9.754c0.777-1.782,2.849-2.591,4.632-1.818
		c1.781,0.776,2.595,2.85,1.818,4.632c-2.118,4.856-5.39,9.151-9.462,12.425C163.489,303.709,162.711,303.963,161.937,303.963z
		 M123.867,300.634c-0.971,0-1.938-0.4-2.634-1.184c-3.468-3.913-5.985-8.686-7.277-13.804c-0.476-1.885,0.665-3.799,2.55-4.275
		c1.882-0.464,3.798,0.666,4.273,2.55c1.018,4.033,2.997,7.786,5.721,10.859c1.29,1.456,1.156,3.679-0.299,4.967
		C125.531,300.342,124.697,300.634,123.867,300.634z M172.883,279.145c-1.943,0-3.519-1.576-3.519-3.519v-14.075
		c0-1.943,1.576-3.519,3.519-3.519c1.943,0,3.519,1.576,3.519,3.519v14.075C176.402,277.569,174.826,279.145,172.883,279.145z
		 M116.445,274.307c-1.943,0-3.519-1.576-3.519-3.519v-14.075c0-1.943,1.576-3.519,3.519-3.519c1.943,0,3.519,1.576,3.519,3.519
		v14.075C119.964,272.731,118.389,274.307,116.445,274.307z M172.883,250.994c-1.943,0-3.519-1.576-3.519-3.519V233.4
		c0-1.943,1.576-3.519,3.519-3.519c1.943,0,3.519,1.576,3.519,3.519v14.075C176.402,249.418,174.826,250.994,172.883,250.994z
		 M116.445,246.155c-1.943,0-3.519-1.576-3.519-3.519v-14.075c0-1.943,1.576-3.519,3.519-3.519c1.943,0,3.519,1.576,3.519,3.519
		v14.075C119.964,244.579,118.389,246.155,116.445,246.155z M116.445,218.004c-1.943,0-3.519-1.576-3.519-3.519V200.41
		c0-1.943,1.576-3.519,3.519-3.519c1.943,0,3.519,1.576,3.519,3.519v14.075C119.964,216.429,118.389,218.004,116.445,218.004z
		 M116.445,189.853c-1.943,0-3.519-1.576-3.519-3.519v-14.076c0-1.943,1.576-3.519,3.519-3.519c1.943,0,3.519,1.576,3.519,3.519
		v14.075C119.964,188.277,118.389,189.853,116.445,189.853z M116.445,161.701c-1.943,0-3.519-1.576-3.519-3.519v-14.075
		c0-1.943,1.576-3.519,3.519-3.519c1.943,0,3.519,1.576,3.519,3.519v14.075C119.964,160.125,118.389,161.701,116.445,161.701z
		 M116.445,133.55c-1.943,0-3.519-1.576-3.519-3.519v-14.075c0-1.943,1.576-3.519,3.519-3.519c1.943,0,3.519,1.576,3.519,3.519
		v14.075C119.964,131.974,118.389,133.55,116.445,133.55z M116.445,105.399c-1.943,0-3.519-1.576-3.519-3.519V87.804
		c0-1.943,1.576-3.519,3.519-3.519c1.943,0,3.519,1.576,3.519,3.519v14.075C119.964,103.823,118.389,105.399,116.445,105.399z"/>
</g>
<g>
	<path fill="#FFFFFF" d="M285.876,282.128c-1.943,0-3.519-1.576-3.519-3.519v-2.807c0-1.943,1.576-3.519,3.519-3.519
		c1.943,0,3.519,1.576,3.519,3.519v2.807C289.394,280.552,287.818,282.128,285.876,282.128z M285.876,265.245
		c-1.943,0-3.519-1.576-3.519-3.519v-14.075c0-1.943,1.576-3.519,3.519-3.519c1.943,0,3.519,1.576,3.519,3.519v14.075
		C289.394,263.669,287.818,265.245,285.876,265.245z M285.876,237.093c-1.943,0-3.519-1.576-3.519-3.519v-14.075
		c0-1.943,1.576-3.519,3.519-3.519c1.943,0,3.519,1.576,3.519,3.519v14.075C289.394,235.517,287.818,237.093,285.876,237.093z
		 M285.876,208.942c-1.943,0-3.519-1.576-3.519-3.519v-14.075c0-1.943,1.576-3.519,3.519-3.519c1.943,0,3.519,1.576,3.519,3.519
		v14.075C289.394,207.366,287.818,208.942,285.876,208.942z M285.876,180.79c-1.943,0-3.519-1.576-3.519-3.519v-14.075
		c0-1.943,1.576-3.519,3.519-3.519c1.943,0,3.519,1.576,3.519,3.519v14.075C289.394,179.215,287.818,180.79,285.876,180.79z
		 M285.876,152.639c-1.943,0-3.519-1.576-3.519-3.519v-14.075c0-1.943,1.576-3.519,3.519-3.519c1.943,0,3.519,1.576,3.519,3.519
		v14.075C289.394,151.063,287.818,152.639,285.876,152.639z M285.876,124.488c-1.943,0-3.519-1.576-3.519-3.519v-14.075
		c0-1.943,1.576-3.519,3.519-3.519c1.943,0,3.519,1.576,3.519,3.519v14.075C289.394,122.912,287.818,124.488,285.876,124.488z
		 M285.876,96.336c-1.943,0-3.519-1.576-3.519-3.519V78.742c0-1.943,1.576-3.519,3.519-3.519c1.943,0,3.519,1.576,3.519,3.519
		v14.075C289.394,94.761,287.818,96.336,285.876,96.336z M285.876,68.185c-1.943,0-3.519-1.576-3.519-3.519V50.591
		c0-1.943,1.576-3.519,3.519-3.519c1.943,0,3.519,1.576,3.519,3.519v14.075C289.394,66.609,287.818,68.185,285.876,68.185z
		 M285.876,40.034c-1.943,0-3.519-1.576-3.519-3.519V22.439c0-1.943,1.576-3.519,3.519-3.519c1.943,0,3.519,1.576,3.519,3.519
		v14.075C289.394,38.458,287.818,40.034,285.876,40.034z"/>
</g>
<g>
	<path fill="#FFFFFF" d="M229.366,180.469c-1.943,0-3.519-1.576-3.519-3.519v-14.075c0-1.943,1.576-3.519,3.519-3.519
		c1.943,0,3.519,1.576,3.519,3.519v14.075C232.885,178.894,231.309,180.469,229.366,180.469z M229.366,152.318
		c-1.943,0-3.519-1.576-3.519-3.519v-14.075c0-1.943,1.576-3.519,3.519-3.519c1.943,0,3.519,1.576,3.519,3.519v14.075
		C232.885,150.742,231.309,152.318,229.366,152.318z M229.366,124.166c-1.943,0-3.519-1.576-3.519-3.519v-14.075
		c0-1.943,1.576-3.519,3.519-3.519c1.943,0,3.519,1.576,3.519,3.519v14.075C232.885,122.59,231.309,124.166,229.366,124.166z
		 M229.366,96.015c-1.943,0-3.519-1.576-3.519-3.519V78.42c0-1.943,1.576-3.519,3.519-3.519c1.943,0,3.519,1.576,3.519,3.519v14.075
		C232.885,94.44,231.309,96.015,229.366,96.015z M229.366,67.864c-1.943,0-3.519-1.576-3.519-3.519V50.269
		c0-1.943,1.576-3.519,3.519-3.519c1.943,0,3.519,1.576,3.519,3.519v14.075C232.885,66.288,231.309,67.864,229.366,67.864z
		 M229.366,39.712c-1.943,0-3.519-1.576-3.519-3.519V22.118c0-1.943,1.576-3.519,3.519-3.519c1.943,0,3.519,1.576,3.519,3.519
		v14.075C232.885,38.136,231.309,39.712,229.366,39.712z"/>
</g>
<g>
	<g>
		<path fill="#FFFFFF" d="M596.304,244.703c-3.597-0.002-7.118-0.611-10.469-1.811c-1.83-0.654-2.782-2.67-2.126-4.498
			c0.654-1.832,2.672-2.79,4.499-2.127c3.834,1.372,8.061,1.748,12.093,1.065c1.913-0.316,3.731,0.97,4.054,2.886
			c0.323,1.916-0.969,3.732-2.885,4.055C599.775,244.559,598.036,244.703,596.304,244.703z M613.576,238.599
			c-1.03,0-2.051-0.45-2.746-1.315c-1.218-1.516-0.975-3.731,0.538-4.947c3.189-2.563,5.756-5.937,7.421-9.754
			c0.775-1.782,2.848-2.593,4.632-1.818c1.781,0.776,2.595,2.85,1.818,4.632c-2.118,4.856-5.39,9.151-9.462,12.425
			C615.127,238.344,614.349,238.599,613.576,238.599z M575.505,235.27c-0.971,0-1.938-0.4-2.634-1.184
			c-3.468-3.913-5.985-8.686-7.277-13.804c-0.476-1.885,0.665-3.799,2.55-4.275c1.882-0.464,3.798,0.666,4.273,2.55
			c1.018,4.033,2.997,7.787,5.721,10.859c1.29,1.456,1.156,3.679-0.299,4.967C577.17,234.978,576.336,235.27,575.505,235.27z
			 M624.522,213.78c-1.943,0-3.519-1.576-3.519-3.519v-14.075c0-1.943,1.576-3.519,3.519-3.519c1.943,0,3.519,1.576,3.519,3.519
			v14.075C628.041,212.205,626.465,213.78,624.522,213.78z M568.084,208.942c-1.943,0-3.519-1.576-3.519-3.519v-14.075
			c0-1.943,1.576-3.519,3.519-3.519c1.943,0,3.519,1.576,3.519,3.519v14.075C571.602,207.366,570.027,208.942,568.084,208.942z
			 M624.522,185.629c-1.943,0-3.519-1.576-3.519-3.519v-14.075c0-1.943,1.576-3.519,3.519-3.519c1.943,0,3.519,1.576,3.519,3.519
			v14.075C628.041,184.053,626.465,185.629,624.522,185.629z M568.084,180.79c-1.943,0-3.519-1.576-3.519-3.519v-14.075
			c0-1.943,1.576-3.519,3.519-3.519c1.943,0,3.519,1.576,3.519,3.519v14.075C571.602,179.215,570.027,180.79,568.084,180.79z
			 M624.522,157.478c-1.943,0-3.519-1.576-3.519-3.519v-14.076c0-1.943,1.576-3.519,3.519-3.519c1.943,0,3.519,1.576,3.519,3.519
			v14.075C628.041,155.902,626.465,157.478,624.522,157.478z M568.084,152.639c-1.943,0-3.519-1.576-3.519-3.519v-14.075
			c0-1.943,1.576-3.519,3.519-3.519c1.943,0,3.519,1.576,3.519,3.519v14.075C571.602,151.063,570.027,152.639,568.084,152.639z
			 M624.522,129.326c-1.943,0-3.519-1.576-3.519-3.519v-14.075c0-1.943,1.576-3.519,3.519-3.519c1.943,0,3.519,1.576,3.519,3.519
			v14.075C628.041,127.751,626.465,129.326,624.522,129.326z M568.084,124.488c-1.943,0-3.519-1.576-3.519-3.519v-14.075
			c0-1.943,1.576-3.519,3.519-3.519c1.943,0,3.519,1.576,3.519,3.519v14.075C571.602,122.912,570.027,124.488,568.084,124.488z
			 M624.522,101.175c-1.943,0-3.519-1.576-3.519-3.519V83.581c0-1.943,1.576-3.519,3.519-3.519c1.943,0,3.519,1.576,3.519,3.519
			v14.075C628.041,99.599,626.465,101.175,624.522,101.175z M568.084,96.336c-1.943,0-3.519-1.576-3.519-3.519V78.742
			c0-1.943,1.576-3.519,3.519-3.519c1.943,0,3.519,1.576,3.519,3.519v14.075C571.602,94.761,570.027,96.336,568.084,96.336z
			 M568.084,68.185c-1.943,0-3.519-1.576-3.519-3.519V50.591c0-1.943,1.576-3.519,3.519-3.519c1.943,0,3.519,1.576,3.519,3.519
			v14.075C571.602,66.609,570.027,68.185,568.084,68.185z M568.084,40.034c-1.943,0-3.519-1.576-3.519-3.519V22.439
			c0-1.943,1.576-3.519,3.519-3.519c1.943,0,3.519,1.576,3.519,3.519v14.075C571.602,38.458,570.027,40.034,568.084,40.034z"/>
	</g>
	<g>
		<path fill="#FFFFFF" d="M511.572,96.336c-1.943,0-3.519-1.576-3.519-3.519V78.742c0-1.943,1.576-3.519,3.519-3.519
			c1.943,0,3.519,1.576,3.519,3.519v14.075C515.091,94.761,513.515,96.336,511.572,96.336z M511.572,68.185
			c-1.943,0-3.519-1.576-3.519-3.519V50.591c0-1.943,1.576-3.519,3.519-3.519c1.943,0,3.519,1.576,3.519,3.519v14.075
			C515.091,66.609,513.515,68.185,511.572,68.185z M511.572,40.034c-1.943,0-3.519-1.576-3.519-3.519V22.439
			c0-1.943,1.576-3.519,3.519-3.519c1.943,0,3.519,1.576,3.519,3.519v14.075C515.091,38.458,513.515,40.034,511.572,40.034z"/>
	</g>
</g>
<g>
	<g>
		<path fill="#FFFFFF" d="M737.199,281.067c-1.935,0-3.504-1.569-3.504-3.504v-14.019c0-1.935,1.569-3.504,3.504-3.504
			s3.504,1.569,3.504,3.504v14.019C740.704,279.498,739.134,281.067,737.199,281.067z M737.199,253.029
			c-1.935,0-3.504-1.569-3.504-3.504v-14.019c0-1.935,1.569-3.504,3.504-3.504s3.504,1.569,3.504,3.504v14.019
			C740.704,251.46,739.134,253.029,737.199,253.029z M737.199,224.991c-1.935,0-3.504-1.569-3.504-3.504v-14.019
			c0-1.935,1.569-3.504,3.504-3.504s3.504,1.569,3.504,3.504v14.019C740.704,223.422,739.134,224.991,737.199,224.991z
			 M737.199,196.954c-1.935,0-3.504-1.569-3.504-3.504v-14.019c0-1.935,1.569-3.504,3.504-3.504s3.504,1.569,3.504,3.504v14.019
			C740.704,195.384,739.134,196.954,737.199,196.954z M737.199,168.915c-1.935,0-3.504-1.569-3.504-3.504v-5.538
			c0-1.935,1.569-3.504,3.504-3.504s3.504,1.569,3.504,3.504v5.538C740.704,167.346,739.134,168.915,737.199,168.915z"/>
	</g>
	<g>
		<path fill="#FFFFFF" d="M905.992,298.59c-1.935,0-3.504-1.569-3.504-3.504v-14.019c0-1.935,1.569-3.504,3.504-3.504
			s3.504,1.569,3.504,3.504v14.019C909.497,297.021,907.928,298.59,905.992,298.59z M905.992,270.553
			c-1.935,0-3.504-1.569-3.504-3.504V253.03c0-1.935,1.569-3.504,3.504-3.504s3.504,1.569,3.504,3.504v14.019
			C909.497,268.984,907.928,270.553,905.992,270.553z M905.992,242.515c-1.935,0-3.504-1.569-3.504-3.504v-14.019
			c0-1.935,1.569-3.504,3.504-3.504s3.504,1.569,3.504,3.504v14.019C909.497,240.946,907.928,242.515,905.992,242.515z
			 M905.992,214.477c-1.935,0-3.504-1.569-3.504-3.504v-14.019c0-1.935,1.569-3.504,3.504-3.504s3.504,1.569,3.504,3.504v14.019
			C909.497,212.907,907.928,214.477,905.992,214.477z M905.992,186.439c-1.935,0-3.504-1.569-3.504-3.504v-14.019
			c0-1.935,1.569-3.504,3.504-3.504s3.504,1.569,3.504,3.504v14.019C909.497,184.87,907.928,186.439,905.992,186.439z
			 M905.992,158.401c-1.935,0-3.504-1.569-3.504-3.504v-14.019c0-1.935,1.569-3.504,3.504-3.504s3.504,1.569,3.504,3.504v14.019
			C909.497,156.832,907.928,158.401,905.992,158.401z M905.992,130.363c-1.935,0-3.504-1.569-3.504-3.504V112.84
			c0-1.935,1.569-3.504,3.504-3.504s3.504,1.569,3.504,3.504v14.019C909.497,128.794,907.928,130.363,905.992,130.363z
			 M905.992,102.326c-1.935,0-3.504-1.569-3.504-3.504v-14.02c0-1.935,1.569-3.504,3.504-3.504s3.504,1.569,3.504,3.504V98.82
			C909.497,100.756,907.928,102.326,905.992,102.326z M849.78,100.063c-1.935,0-3.504-1.569-3.504-3.504V82.54
			c0-1.935,1.569-3.504,3.504-3.504s3.504,1.569,3.504,3.504v14.019C853.285,98.494,851.716,100.063,849.78,100.063z
			 M905.992,74.288c-1.935,0-3.504-1.569-3.504-3.504v-14.02c0-1.935,1.569-3.504,3.504-3.504s3.504,1.569,3.504,3.504v14.019
			C909.497,72.718,907.928,74.288,905.992,74.288z M849.78,72.026c-1.935,0-3.504-1.569-3.504-3.504v-14.02
			c0-1.935,1.569-3.504,3.504-3.504s3.504,1.569,3.504,3.504V68.52C853.285,70.456,851.716,72.026,849.78,72.026z M904.731,46.376
			c-1.509,0-2.903-0.984-3.357-2.504c-1.185-3.969-3.316-7.616-6.16-10.548c-1.347-1.39-1.314-3.609,0.076-4.956
			c1.39-1.347,3.608-1.314,4.956,0.076c3.625,3.738,6.338,8.38,7.846,13.424c0.554,1.853-0.5,3.806-2.354,4.36
			C905.402,46.328,905.064,46.376,904.731,46.376z M851.791,44.238c-0.419,0-0.845-0.077-1.259-0.236
			c-1.807-0.696-2.706-2.724-2.01-4.532c1.896-4.916,4.963-9.333,8.869-12.773c1.455-1.281,3.669-1.138,4.946,0.315
			c1.279,1.453,1.139,3.667-0.314,4.945c-3.063,2.697-5.471,6.168-6.962,10.035C854.526,43.384,853.198,44.238,851.791,44.238z
			 M885.919,27.124c-0.339,0-0.684-0.05-1.026-0.154c-2.256-0.692-4.607-1.04-6.99-1.04c-0.005,0-0.01,0-0.015,0
			c-1.717,0-3.424,0.183-5.074,0.542c-1.892,0.404-3.758-0.787-4.171-2.678c-0.413-1.891,0.786-3.758,2.677-4.17
			c2.14-0.467,4.349-0.703,6.565-0.703c0.006,0,0.013,0,0.019,0c3.075,0,6.116,0.453,9.038,1.345
			c1.85,0.566,2.892,2.526,2.327,4.377C888.809,26.153,887.419,27.124,885.919,27.124z"/>
	</g>
	<g>
		<path fill="#FFFFFF" d="M821.536,243.793c-3.58,0-7.088-0.606-10.426-1.802c-1.822-0.652-2.771-2.659-2.117-4.482
			c0.652-1.82,2.66-2.771,4.481-2.116c3.819,1.367,8.03,1.739,12.045,1.059c1.907-0.315,3.716,0.967,4.038,2.875
			s-0.966,3.717-2.874,4.038C824.994,243.65,823.262,243.793,821.536,243.793z M838.74,237.713c-1.026,0-2.043-0.448-2.734-1.309
			c-1.213-1.51-0.973-3.716,0.536-4.927c3.177-2.553,5.732-5.913,7.391-9.715c0.773-1.775,2.838-2.583,4.613-1.811
			c1.774,0.773,2.585,2.839,1.811,4.613c-2.109,4.837-5.369,9.114-9.424,12.375C840.286,237.46,839.511,237.713,838.74,237.713z
			 M800.823,234.398c-0.968,0-1.93-0.399-2.624-1.179c-3.454-3.897-5.961-8.651-7.248-13.749c-0.474-1.877,0.663-3.783,2.54-4.258
			c1.873-0.462,3.782,0.664,4.256,2.54c1.014,4.017,2.985,7.755,5.698,10.815c1.284,1.45,1.151,3.664-0.298,4.947
			C802.481,234.107,801.651,234.398,800.823,234.398z M849.641,212.995c-1.935,0-3.504-1.569-3.504-3.504v-14.019
			c0-1.935,1.569-3.504,3.504-3.504s3.504,1.569,3.504,3.504v14.019C853.146,211.426,851.576,212.995,849.641,212.995z
			 M793.431,208.176c-1.935,0-3.504-1.569-3.504-3.504v-14.019c0-1.935,1.569-3.504,3.504-3.504s3.504,1.569,3.504,3.504v14.019
			C796.936,206.607,795.366,208.176,793.431,208.176z M849.641,184.957c-1.935,0-3.504-1.569-3.504-3.504v-14.019
			c0-1.935,1.569-3.504,3.504-3.504s3.504,1.569,3.504,3.504v14.019C853.146,183.387,851.576,184.957,849.641,184.957z
			 M793.431,180.138c-1.935,0-3.504-1.569-3.504-3.504v-14.019c0-1.935,1.569-3.504,3.504-3.504s3.504,1.569,3.504,3.504v14.019
			C796.936,178.569,795.366,180.138,793.431,180.138z M849.641,156.92c-1.935,0-3.504-1.569-3.504-3.504v-14.02
			c0-1.935,1.569-3.504,3.504-3.504s3.504,1.569,3.504,3.504v14.019C853.146,155.35,851.576,156.92,849.641,156.92z M793.431,152.1
			c-1.935,0-3.504-1.569-3.504-3.504v-14.019c0-1.935,1.569-3.504,3.504-3.504s3.504,1.569,3.504,3.504v14.019
			C796.936,150.531,795.366,152.1,793.431,152.1z M849.641,128.881c-1.935,0-3.504-1.569-3.504-3.504v-3.775
			c0-1.935,1.569-3.504,3.504-3.504s3.504,1.569,3.504,3.504v3.775C853.146,127.312,851.576,128.881,849.641,128.881z
			 M793.431,124.063c-1.935,0-3.504-1.569-3.504-3.504V106.54c0-1.935,1.569-3.504,3.504-3.504s3.504,1.569,3.504,3.504v14.019
			C796.936,122.493,795.366,124.063,793.431,124.063z M793.431,96.024c-1.935,0-3.504-1.569-3.504-3.504V78.5
			c0-1.935,1.569-3.504,3.504-3.504s3.504,1.569,3.504,3.504v14.019C796.936,94.455,795.366,96.024,793.431,96.024z M793.431,67.986
			c-1.935,0-3.504-1.569-3.504-3.504V50.463c0-1.935,1.569-3.504,3.504-3.504s3.504,1.569,3.504,3.504v14.019
			C796.936,66.417,795.366,67.986,793.431,67.986z M793.431,39.949c-1.935,0-3.504-1.569-3.504-3.504v-14.02
			c0-1.935,1.569-3.504,3.504-3.504s3.504,1.569,3.504,3.504v14.019C796.936,38.38,795.366,39.949,793.431,39.949z"/>
	</g>
	<g>
		<path fill="#FFFFFF" d="M680.968,307.353c-1.935,0-3.504-1.569-3.504-3.504v-1.044c0-1.935,1.569-3.504,3.504-3.504
			s3.504,1.569,3.504,3.504v1.044C684.472,305.784,682.903,307.353,680.968,307.353z M680.968,292.29
			c-1.935,0-3.504-1.569-3.504-3.504v-14.019c0-1.935,1.569-3.504,3.504-3.504s3.504,1.569,3.504,3.504v14.019
			C684.472,290.721,682.903,292.29,680.968,292.29z M680.968,264.252c-1.935,0-3.504-1.569-3.504-3.504v-14.019
			c0-1.935,1.569-3.504,3.504-3.504s3.504,1.569,3.504,3.504v14.019C684.472,262.682,682.903,264.252,680.968,264.252z
			 M680.968,236.214c-1.935,0-3.504-1.569-3.504-3.504v-14.019c0-1.935,1.569-3.504,3.504-3.504s3.504,1.569,3.504,3.504v14.019
			C684.472,234.644,682.903,236.214,680.968,236.214z M680.968,208.176c-1.935,0-3.504-1.569-3.504-3.504v-14.019
			c0-1.935,1.569-3.504,3.504-3.504s3.504,1.569,3.504,3.504v14.019C684.472,206.607,682.903,208.176,680.968,208.176z
			 M680.968,180.138c-1.935,0-3.504-1.569-3.504-3.504v-14.019c0-1.935,1.569-3.504,3.504-3.504s3.504,1.569,3.504,3.504v14.019
			C684.472,178.569,682.903,180.138,680.968,180.138z M680.968,152.1c-1.935,0-3.504-1.569-3.504-3.504v-14.019
			c0-1.935,1.569-3.504,3.504-3.504s3.504,1.569,3.504,3.504v14.019C684.472,150.531,682.903,152.1,680.968,152.1z M680.968,124.063
			c-1.935,0-3.504-1.569-3.504-3.504V106.54c0-1.935,1.569-3.504,3.504-3.504s3.504,1.569,3.504,3.504v14.019
			C684.472,122.493,682.903,124.063,680.968,124.063z M680.968,96.024c-1.935,0-3.504-1.569-3.504-3.504V78.5
			c0-1.935,1.569-3.504,3.504-3.504s3.504,1.569,3.504,3.504v14.019C684.472,94.455,682.903,96.024,680.968,96.024z M680.968,67.986
			c-1.935,0-3.504-1.569-3.504-3.504V50.463c0-1.935,1.569-3.504,3.504-3.504s3.504,1.569,3.504,3.504v14.019
			C684.472,66.417,682.903,67.986,680.968,67.986z M680.968,39.949c-1.935,0-3.504-1.569-3.504-3.504v-14.02
			c0-1.935,1.569-3.504,3.504-3.504s3.504,1.569,3.504,3.504v14.019C684.472,38.38,682.903,39.949,680.968,39.949z"/>
	</g>
	<g>
		<path fill="#FFFFFF" d="M737.199,96.024c-1.935,0-3.504-1.569-3.504-3.504V78.5c0-1.935,1.569-3.504,3.504-3.504
			s3.504,1.569,3.504,3.504v14.019C740.704,94.455,739.134,96.024,737.199,96.024z M737.199,67.986
			c-1.935,0-3.504-1.569-3.504-3.504V50.463c0-1.935,1.569-3.504,3.504-3.504s3.504,1.569,3.504,3.504v14.019
			C740.704,66.417,739.134,67.986,737.199,67.986z M737.199,39.949c-1.935,0-3.504-1.569-3.504-3.504v-14.02
			c0-1.935,1.569-3.504,3.504-3.504s3.504,1.569,3.504,3.504v14.019C740.704,38.38,739.134,39.949,737.199,39.949z"/>
	</g>
</g>
<g>
	<path fill="#FFFFFF" d="M229.366,286.93c-1.943,0-3.519-1.576-3.519-3.519v-14.075c0-1.943,1.576-3.519,3.519-3.519
		c1.943,0,3.519,1.576,3.519,3.519v14.075C232.885,285.355,231.309,286.93,229.366,286.93z M229.366,258.779
		c-1.943,0-3.519-1.576-3.519-3.519v-14.075c0-1.943,1.576-3.519,3.519-3.519c1.943,0,3.519,1.576,3.519,3.519v14.075
		C232.885,257.203,231.309,258.779,229.366,258.779z"/>
</g>
<g>
	<path fill="#FFFFFF" d="M3.644,265.769c-1.943,0-3.519-1.576-3.519-3.519v-14.075c0-1.943,1.576-3.519,3.519-3.519
		s3.519,1.576,3.519,3.519v14.075C7.164,264.193,5.588,265.769,3.644,265.769z M3.644,237.617c-1.943,0-3.519-1.576-3.519-3.519
		v-14.075c0-1.943,1.576-3.519,3.519-3.519s3.519,1.576,3.519,3.519v14.075C7.164,236.041,5.588,237.617,3.644,237.617z
		 M3.644,209.466c-1.943,0-3.519-1.576-3.519-3.519v-14.075c0-1.943,1.576-3.519,3.519-3.519s3.519,1.576,3.519,3.519v14.075
		C7.164,207.891,5.588,209.466,3.644,209.466z M3.644,181.315c-1.943,0-3.519-1.576-3.519-3.519v-14.075
		c0-1.943,1.576-3.519,3.519-3.519s3.519,1.576,3.519,3.519v14.075C7.164,179.739,5.588,181.315,3.644,181.315z"/>
</g>
<circle fill="#FFFFFF" cx="173.125" cy="224.353" r="9.384"/>
<circle fill="#FFFFFF" cx="511.864" cy="13.056" r="13.056"/>
<circle fill="#FFFFFF" cx="737.199" cy="149.938" r="9.384"/>
<circle fill="#FFFFFF" cx="793.453" cy="20.309" r="9.384"/>
<circle fill="#FFFFFF" cx="116.95" cy="78.42" r="21.114"/>
<circle fill="#FFFFFF" cx="398.654" cy="115.217" r="21.114"/>
</svg>
