<?xml version="1.0" encoding="utf-8"?>
<!-- Generator: Adobe Illustrator 22.0.0, SVG Export Plug-In . SVG Version: 6.00 Build 0)  -->
<svg version="1.1" id="Layer_1" xmlns="http://www.w3.org/2000/svg" xmlns:xlink="http://www.w3.org/1999/xlink" x="0px" y="0px"
	 width="160px" height="50px" viewBox="0 0 160 50" style="enable-background:new 0 0 160 50;" xml:space="preserve">
<style type="text/css">
	.st0{fill:url(#SVGID_1_);}
	.st1{fill:url(#SVGID_2_);}
	.st2{fill:url(#SVGID_3_);}
	.st3{fill:#004180;}
</style>
<g>
	<g>
		<linearGradient id="SVGID_1_" gradientUnits="userSpaceOnUse" x1="1.0773" y1="32.5363" x2="49.8403" y2="32.5363">
			<stop  offset="0.1004" style="stop-color:#009CCE"/>
			<stop  offset="0.2949" style="stop-color:#0088BD"/>
			<stop  offset="0.6896" style="stop-color:#005692"/>
			<stop  offset="0.8423" style="stop-color:#004180"/>
		</linearGradient>
		<path class="st0" d="M25.1,29.3c-11.2,11.3-24.7-3.5-24,0.8c0.7,4,2.1,7.5,6.1,11.7c0,0,12.9,2.1,22.2-5
			c11.9-9.1,20.4-7.5,20.4-7.5C51.1,25.6,37.1,17.2,25.1,29.3z"/>
		<linearGradient id="SVGID_2_" gradientUnits="userSpaceOnUse" x1="9.349" y1="40.6357" x2="49.4884" y2="40.6357">
			<stop  offset="0.1004" style="stop-color:#009CCE"/>
			<stop  offset="0.2949" style="stop-color:#0088BD"/>
			<stop  offset="0.6896" style="stop-color:#005692"/>
			<stop  offset="0.8423" style="stop-color:#004180"/>
		</linearGradient>
		<path class="st1" d="M31.2,38.8c-9.3,8.1-22.7,4.6-21.9,5.3c3.9,3.4,9.1,5.5,14.2,5.9c12.8,0.9,23.6-8.2,25.9-18.4
			C49.6,31,40.8,30.5,31.2,38.8z"/>
		<linearGradient id="SVGID_3_" gradientUnits="userSpaceOnUse" x1="0.1955" y1="14.5219" x2="49.4714" y2="14.5219">
			<stop  offset="0.1004" style="stop-color:#009CCE"/>
			<stop  offset="0.2949" style="stop-color:#0088BD"/>
			<stop  offset="0.6896" style="stop-color:#005692"/>
			<stop  offset="0.8423" style="stop-color:#004180"/>
		</linearGradient>
		<path class="st2" d="M4.9,27.7c11.9,6.5,10.9-12.1,23.7-15.8c11-3.1,21,14.6,20.8,12.6C47.7,1.6,28.2,0,25.4,0
			C18.6,0,12.2,2.1,7.3,6.9C4.9,9.2-5.9,21.7,4.9,27.7z"/>
	</g>
	<g>
		<path class="st3" d="M76.1,29c-0.4,0-0.6-0.2-0.8-0.5L73.6,24h-8l-1.8,4.5C63.6,28.9,63.4,29,63,29h-1.8c-0.2,0-0.3,0-0.4-0.1
			c-0.1-0.1-0.1-0.2,0-0.4l7.7-19.4c0.1-0.3,0.4-0.5,0.8-0.5h1.2c0.4,0,0.6,0.2,0.8,0.5l7.7,19.4c0.2,0.3,0.1,0.5-0.3,0.5H76.1z
			 M70.1,14.3l-0.6-2.1L69,14.3l-2.6,7.3h6.2L70.1,14.3z"/>
		<path class="st3" d="M94.8,20h-2.5c-0.4,0-0.6-0.2-0.6-0.6V18c0-0.4,0.2-0.6,0.6-0.6h5.5c0.4,0,0.6,0.2,0.6,0.6v9.6
			c0,0.2,0,0.3-0.1,0.4c-0.2,0.1-0.4,0.3-0.8,0.4c-0.4,0.2-0.8,0.3-1.3,0.5c-0.5,0.1-1.1,0.3-1.7,0.4c-0.6,0.1-1.2,0.1-1.8,0.1
			c-1.4,0-2.7-0.2-4-0.7c-1.2-0.4-2.3-1.1-3.2-2c-0.9-0.9-1.6-2-2.1-3.3c-0.5-1.3-0.8-2.9-0.8-4.6c0-1.8,0.3-3.3,0.8-4.6
			c0.5-1.3,1.2-2.4,2.1-3.3c0.9-0.9,2-1.5,3.2-2c1.2-0.4,2.5-0.7,4-0.7c0.6,0,1.2,0,1.8,0.1C95,8.5,95.5,8.7,96,8.8
			c0.5,0.1,1,0.3,1.3,0.5c0.4,0.2,0.7,0.3,0.8,0.4c0.1,0.1,0.1,0.2,0.2,0.3c0,0.1,0,0.2-0.1,0.5l-0.5,1c-0.1,0.1-0.2,0.1-0.3,0.1
			c-0.1,0-0.3,0-0.4-0.1c-0.4-0.1-1.1-0.3-1.9-0.4c-0.8-0.2-1.7-0.3-2.6-0.3c-0.9,0-1.7,0.1-2.4,0.4c-0.8,0.3-1.4,0.7-2,1.4
			c-0.6,0.6-1,1.5-1.3,2.5c-0.3,1-0.5,2.3-0.5,3.7c0,1.5,0.2,2.7,0.5,3.7c0.3,1,0.8,1.8,1.4,2.5c0.6,0.6,1.2,1.1,2,1.4
			c0.8,0.3,1.6,0.4,2.4,0.4c0.8,0,1.5-0.1,2.2-0.2V20z"/>
		<path class="st3" d="M116.5,9.2c0-0.4,0.2-0.6,0.6-0.6h1.6c0.4,0,0.6,0.2,0.6,0.6v12.6c0,1.1-0.2,2.1-0.6,3
			c-0.4,0.9-0.9,1.7-1.6,2.4c-0.7,0.7-1.5,1.2-2.4,1.6c-0.9,0.4-2,0.6-3.1,0.6c-1.1,0-2.1-0.2-3-0.6c-0.9-0.4-1.7-0.9-2.4-1.6
			c-0.7-0.7-1.2-1.5-1.6-2.4c-0.4-0.9-0.6-1.9-0.6-3V9.2c0-0.4,0.2-0.6,0.6-0.6h2.4c0.4,0,0.6,0.2,0.6,0.6V21c0,0.8,0.1,1.5,0.3,2.3
			c0.2,0.7,0.4,1.3,0.8,1.9c0.3,0.5,0.8,0.9,1.3,1.3c0.5,0.3,1.1,0.5,1.7,0.5c0.8,0,1.5-0.2,2.1-0.5c0.6-0.3,1.1-0.7,1.5-1.2
			c0.4-0.5,0.7-1.1,0.9-1.9c0.2-0.7,0.3-1.5,0.3-2.3V9.2z"/>
		<path class="st3" d="M138.4,29c-0.4,0-0.6-0.2-0.8-0.5l-1.8-4.5h-8l-1.8,4.5c-0.1,0.4-0.4,0.5-0.8,0.5h-1.8c-0.2,0-0.3,0-0.4-0.1
			c-0.1-0.1-0.1-0.2,0-0.4l7.7-19.4c0.1-0.3,0.4-0.5,0.8-0.5h1.2c0.4,0,0.6,0.2,0.8,0.5l7.7,19.4c0.2,0.3,0.1,0.5-0.3,0.5H138.4z
			 M132.4,14.3l-0.6-2.1l-0.5,2.1l-2.6,7.3h6.2L132.4,14.3z"/>
		<path class="st3" d="M150.6,20c-1.4-0.5-2.5-1.3-3.4-2.2c-0.9-0.9-1.3-2.1-1.3-3.6c0-0.9,0.2-1.8,0.6-2.5c0.4-0.7,0.9-1.4,1.5-1.9
			c0.6-0.5,1.4-0.9,2.2-1.2c0.8-0.3,1.7-0.4,2.7-0.4c0.6,0,1.3,0.1,1.9,0.2c0.6,0.1,1.2,0.2,1.8,0.4c0.5,0.2,1,0.3,1.4,0.5
			c0.4,0.2,0.7,0.3,0.8,0.4c0.1,0.1,0.1,0.2,0.2,0.3c0,0.1,0,0.3-0.1,0.5l-0.5,1.2c0,0.1-0.1,0.2-0.3,0.1c-0.2,0-0.3,0-0.5-0.1
			c-0.2-0.1-0.5-0.1-0.8-0.2c-0.3-0.1-0.7-0.1-1.1-0.2c-0.4-0.1-0.9-0.1-1.3-0.2c-0.5-0.1-0.9-0.1-1.3-0.1c-0.8,0-1.4,0.1-1.9,0.3
			c-0.5,0.2-0.9,0.4-1.2,0.7c-0.3,0.3-0.5,0.6-0.6,0.9c-0.1,0.3-0.2,0.7-0.2,1c0,0.5,0.2,1,0.5,1.4c0.3,0.4,1,0.9,1.9,1.2l2.7,1
			c0.8,0.3,1.5,0.7,2.1,1.1c0.6,0.4,1.1,0.9,1.5,1.5c0.4,0.5,0.7,1.1,0.9,1.7c0.2,0.6,0.3,1.2,0.3,1.8c0,0.9-0.2,1.6-0.5,2.3
			c-0.4,0.7-0.9,1.3-1.5,1.8c-0.6,0.5-1.4,0.9-2.3,1.1c-0.9,0.3-1.9,0.4-3,0.4c-0.6,0-1.2,0-1.8-0.1c-0.6-0.1-1.2-0.2-1.8-0.4
			c-0.6-0.1-1-0.3-1.5-0.5c-0.4-0.2-0.7-0.3-0.9-0.4c-0.1-0.1-0.1-0.2-0.2-0.3c0-0.1,0-0.2,0.1-0.5l0.5-1.2c0-0.1,0.1-0.2,0.3-0.1
			c0.2,0,0.3,0,0.5,0.1c0.2,0.1,0.5,0.1,0.8,0.2c0.4,0.1,0.8,0.1,1.2,0.2c0.5,0.1,0.9,0.1,1.4,0.2c0.5,0.1,0.9,0.1,1.3,0.1
			c1.2,0,2.2-0.2,3-0.7c0.7-0.5,1.1-1.1,1.1-1.9c0-0.7-0.3-1.3-0.8-1.8c-0.5-0.5-1.1-0.9-1.9-1.2L150.6,20z"/>
		<path class="st3" d="M66.7,34.3c0.6,0.4,1.1,1,1.5,1.7c0.3,0.7,0.5,1.6,0.5,2.5c0,1-0.2,1.8-0.5,2.6c-0.3,0.7-0.8,1.3-1.5,1.7
			c-0.6,0.4-1.4,0.6-2.2,0.6h-2.9v-9.8h2.9C65.3,33.7,66.1,33.9,66.7,34.3z M66.4,42.3c0.5-0.3,0.9-0.8,1.2-1.5
			c0.3-0.6,0.4-1.4,0.4-2.2c0-0.8-0.1-1.6-0.4-2.2c-0.3-0.6-0.7-1.1-1.2-1.5c-0.5-0.4-1.1-0.5-1.9-0.5h-2.2v8.5h2.2
			C65.2,42.8,65.8,42.6,66.4,42.3z"/>
		<path class="st3" d="M75.4,42.8v0.6h-4.9v-9.8h4.8v0.6h-4.1V38h4v0.6h-4v4.1H75.4z"/>
		<path class="st3" d="M81.4,43.2c-0.5-0.2-0.9-0.5-1.2-0.9c-0.3-0.4-0.4-0.9-0.4-1.4h0.7c0,0.6,0.2,1.1,0.7,1.5
			c0.5,0.4,1.1,0.5,1.9,0.5c0.8,0,1.4-0.2,1.9-0.6c0.5-0.4,0.7-0.9,0.7-1.5c0-0.5-0.1-0.8-0.3-1.1c-0.2-0.3-0.5-0.5-0.9-0.6
			c-0.4-0.1-0.8-0.2-1.4-0.3c-2-0.3-3-1.2-3-2.7c0-0.8,0.3-1.4,0.8-1.8c0.6-0.5,1.3-0.7,2.2-0.7c0.9,0,1.6,0.2,2.2,0.7
			c0.5,0.5,0.8,1.1,0.8,1.8h-0.6c0-0.6-0.2-1-0.6-1.4c-0.4-0.3-1-0.5-1.7-0.5c-0.7,0-1.3,0.2-1.7,0.5c-0.4,0.3-0.6,0.8-0.6,1.4
			c0,0.6,0.2,1.1,0.7,1.4c0.5,0.3,1,0.5,1.8,0.6c1,0.2,1.8,0.4,2.4,0.8c0.6,0.4,0.8,1,0.8,1.8c0,0.5-0.1,1-0.4,1.4s-0.6,0.7-1.1,1
			c-0.5,0.2-1,0.3-1.7,0.3C82.5,43.5,81.9,43.4,81.4,43.2z"/>
		<path class="st3" d="M95.1,43.4L95.1,43.4l-0.7,0l-1.1-2.7h-4.5l-1.1,2.7H87v0l3.9-9.8h0.3L95.1,43.4z M89,40.1h4.1l-2-5.3
			L89,40.1z"/>
		<path class="st3" d="M103,33.7v9.8h-0.3l-5.6-8.2l0,2.6v5.6h-0.7v-9.8h0.3l5.6,8.2l0-2.7v-5.5H103z"/>
		<path class="st3" d="M115,33.7v9.8h-0.3l-5.6-8.2l0,2.6v5.6h-0.7v-9.8h0.3l5.6,8.2l0-2.7v-5.5H115z"/>
		<path class="st3" d="M118,33.7v9.8h-0.7v-9.8H118z"/>
		<path class="st3" d="M121.8,42.9c-0.6-0.4-1.1-1-1.4-1.8c-0.3-0.8-0.5-1.6-0.5-2.6c0-1,0.2-1.8,0.5-2.6c0.3-0.8,0.8-1.3,1.4-1.8
			s1.3-0.6,2.2-0.6c0.9,0,1.7,0.2,2.4,0.7c0.7,0.5,1.1,1.2,1.3,2.1H127c-0.2-0.7-0.6-1.2-1.1-1.6c-0.5-0.4-1.2-0.6-1.9-0.6
			s-1.3,0.2-1.8,0.5c-0.5,0.4-0.9,0.9-1.2,1.5c-0.3,0.7-0.4,1.4-0.4,2.3c0,0.9,0.1,1.6,0.4,2.3c0.3,0.7,0.7,1.2,1.2,1.5
			c0.5,0.4,1.1,0.5,1.8,0.5c0.7,0,1.4-0.2,1.9-0.6c0.5-0.4,0.9-1,1.2-1.8h0.7c-0.3,1-0.7,1.7-1.4,2.2s-1.5,0.8-2.4,0.8
			C123.1,43.5,122.4,43.3,121.8,42.9z"/>
		<path class="st3" d="M131,42.9c-0.6-0.4-1.1-1-1.5-1.7c-0.3-0.8-0.5-1.6-0.5-2.6c0-1,0.2-1.9,0.5-2.6c0.3-0.8,0.8-1.3,1.5-1.7
			c0.6-0.4,1.4-0.6,2.2-0.6c0.8,0,1.6,0.2,2.2,0.6c0.6,0.4,1.1,1,1.5,1.7c0.3,0.8,0.5,1.6,0.5,2.6c0,1-0.2,1.9-0.5,2.6
			c-0.3,0.8-0.8,1.3-1.5,1.7c-0.6,0.4-1.4,0.6-2.2,0.6C132.3,43.5,131.6,43.3,131,42.9z M135.1,42.4c0.5-0.4,0.9-0.9,1.2-1.5
			c0.3-0.7,0.4-1.4,0.4-2.3c0-0.9-0.1-1.7-0.4-2.3c-0.3-0.7-0.7-1.2-1.2-1.5c-0.5-0.4-1.2-0.5-1.9-0.5s-1.3,0.2-1.9,0.5
			c-0.5,0.4-0.9,0.9-1.2,1.5c-0.3,0.7-0.4,1.4-0.4,2.3c0,0.9,0.1,1.7,0.4,2.3c0.3,0.7,0.7,1.2,1.2,1.5c0.5,0.4,1.2,0.5,1.9,0.5
			S134.5,42.7,135.1,42.4z"/>
		<path class="st3" d="M144,42.8v0.6h-4.8v-9.8h0.7v9.1H144z"/>
		<path class="st3" d="M152.7,43.4L152.7,43.4l-0.7,0l-1.1-2.7h-4.5l-1.1,2.7h-0.7v0l3.9-9.8h0.3L152.7,43.4z M146.6,40.1h4.1
			l-2-5.3L146.6,40.1z M149.8,30.8l0.5,0.3v0.1l-1.6,1.6h-0.6v0L149.8,30.8z"/>
		<path class="st3" d="M154.9,43.2c-0.5-0.2-0.9-0.5-1.2-0.9c-0.3-0.4-0.4-0.9-0.4-1.4h0.7c0,0.6,0.2,1.1,0.7,1.5
			c0.5,0.4,1.1,0.5,1.9,0.5c0.8,0,1.4-0.2,1.9-0.6s0.7-0.9,0.7-1.5c0-0.5-0.1-0.8-0.3-1.1c-0.2-0.3-0.5-0.5-0.9-0.6
			c-0.4-0.1-0.8-0.2-1.4-0.3c-2-0.3-3-1.2-3-2.7c0-0.8,0.3-1.4,0.8-1.8c0.6-0.5,1.3-0.7,2.2-0.7c0.9,0,1.6,0.2,2.2,0.7
			c0.5,0.5,0.8,1.1,0.8,1.8h-0.6c0-0.6-0.2-1-0.6-1.4c-0.4-0.3-1-0.5-1.7-0.5c-0.7,0-1.3,0.2-1.7,0.5c-0.4,0.3-0.6,0.8-0.6,1.4
			c0,0.6,0.2,1.1,0.7,1.4c0.5,0.3,1,0.5,1.8,0.6c1,0.2,1.8,0.4,2.4,0.8c0.6,0.4,0.8,1,0.8,1.8c0,0.5-0.1,1-0.4,1.4s-0.6,0.7-1.1,1
			c-0.5,0.2-1,0.3-1.7,0.3C155.9,43.5,155.4,43.4,154.9,43.2z"/>
	</g>
</g>
</svg>
