<?xml version="1.0" encoding="iso-8859-1"?>
<!-- Uploaded to: SVG Repo, www.svgrepo.com, Generator: SVG Repo Mixer Tools -->
<svg fill="#000000" height="800px" width="800px" version="1.1" id="Layer_1" xmlns="http://www.w3.org/2000/svg" xmlns:xlink="http://www.w3.org/1999/xlink" 
	 viewBox="0 0 512 512" xml:space="preserve">
<g>
	<g>
		<path d="M456.348,38.957c-9.22,0-16.696,7.475-16.696,16.696V77.82C391.81,28.482,325.852,0,256,0C114.842,0,0,114.842,0,256
			c0,24.278,3.413,48.314,10.144,71.443c2.576,8.852,11.839,13.942,20.696,11.365c8.853-2.577,13.942-11.843,11.365-20.696
			c-5.849-20.096-8.814-40.993-8.814-62.112c0-122.746,99.862-222.609,222.609-222.609c62.897,0,122.174,26.568,164.092,72.348
			h-30.526c-9.22,0-16.696,7.475-16.696,16.696c0,9.22,7.475,16.696,16.696,16.696c12.021,0,59.836,0,66.783,0
			c9.22,0,16.696-7.475,16.696-16.696V55.652C473.043,46.432,465.568,38.957,456.348,38.957z"/>
	</g>
</g>
<g>
	<g>
		<path d="M256,306.087c-12.975,0-20.772-14.132-14.531-24.946c4.611-7.985,1.875-18.196-6.109-22.806
			c-7.986-4.612-18.196-1.877-22.807,6.109c-19.094,33.069,4.875,75.034,43.448,75.034c9.22,0,16.696-7.475,16.696-16.696
			S265.22,306.087,256,306.087z"/>
	</g>
</g>
<g>
	<g>
		<path d="M357.269,231.022L270.463,80.695c-6.423-11.124-22.504-11.104-28.916,0l-86.813,150.323c0,0,0,0-0.001,0
			C109.945,308.585,166.183,406.261,256,406.261C345.907,406.261,402.001,308.484,357.269,231.022z M256,372.87
			c-64.303,0-104.238-69.937-72.35-125.154h-0.001l72.354-125.286l72.35,125.291C360.247,302.948,320.287,372.87,256,372.87z"/>
	</g>
</g>
<g>
	<g>
		<path d="M501.854,184.552c-2.578-8.853-11.839-13.941-20.697-11.364c-8.853,2.577-13.941,11.843-11.364,20.696
			c5.85,20.099,8.816,40.998,8.816,62.117c0,122.746-99.862,222.609-222.609,222.609c-62.884,0-122.172-26.574-164.092-72.352
			h32.882c9.22,0,16.696-7.475,16.696-16.696c0-9.22-7.475-16.696-16.696-16.696H58.007c-10.035,0-18.905,9.299-16.696,20.234
			v63.244c0,9.22,7.475,16.696,16.696,16.696s16.696-7.475,16.696-16.696v-19.755C122.347,484.444,187.305,512,256,512
			c141.158,0,256-114.842,256-256C512,231.721,508.586,207.683,501.854,184.552z"/>
	</g>
</g>
</svg>