<!DOCTYPE svg PUBLIC "-//W3C//DTD SVG 1.1//EN" "http://www.w3.org/Graphics/SVG/1.1/DTD/svg11.dtd">
<!-- Uploaded to: SVG Repo, www.svgrepo.com, Transformed by: SVG Repo Mixer Tools -->
<svg fill="#ffffff" height="800px" width="800px" version="1.1" id="Layer_1" xmlns="http://www.w3.org/2000/svg" xmlns:xlink="http://www.w3.org/1999/xlink" viewBox="-128 -128 768.00 768.00" xml:space="preserve" transform="matrix(1, 0, 0, 1, 0, 0)" stroke="#ffffff">
<g id="SVGRepo_bgCarrier" stroke-width="0"/>
<g id="SVGRepo_tracerCarrier" stroke-linecap="round" stroke-linejoin="round"/>
<g id="SVGRepo_iconCarrier"> <g> <g> <path d="M223.663,232.826c-4.465,0-8.084,3.618-8.084,8.084v30.72h-44.194v-30.72c0-4.465-3.62-8.084-8.084-8.084 c-4.465,0-8.084,3.618-8.084,8.084v77.608c0,4.466,3.62,8.084,8.084,8.084c4.465,0,8.084-3.618,8.084-8.084v-30.72h44.194v30.72 c0,4.466,3.62,8.084,8.084,8.084c4.465,0,8.084-3.618,8.084-8.084V240.91C231.748,236.445,228.128,232.826,223.663,232.826z"/> </g> </g> <g> <g> <path d="M309.895,232.826c-25.854,0-46.888,21.034-46.888,46.888s21.034,46.888,46.888,46.888s46.888-21.034,46.888-46.888 S335.748,232.826,309.895,232.826z M309.895,310.434c-16.939,0-30.72-13.781-30.72-30.72s13.781-30.72,30.72-30.72 s30.72,13.781,30.72,30.72S326.833,310.434,309.895,310.434z"/> </g> </g> <g> <g> <path d="M284.025,375.108h-21.852l22.912-20.367c1.726-1.534,2.713-3.733,2.713-6.042v-2.156c0-15.156-12.33-27.486-27.486-27.486 c-15.156,0-27.486,12.331-27.486,27.486c0,4.466,3.62,8.084,8.084,8.084c4.465,0,8.084-3.618,8.084-8.084 c0-6.241,5.077-11.318,11.318-11.318c5.768,0,10.541,4.336,11.232,9.92l-36.005,32.004c-2.508,2.229-3.378,5.778-2.185,8.915 c1.192,3.138,4.199,5.212,7.556,5.212h43.116c4.465,0,8.084-3.619,8.084-8.084S288.49,375.108,284.025,375.108z"/> </g> </g> <g> <g> <path d="M384.164,371.873c-4.25-1.371-8.807,0.954-10.182,5.202c-7.348,22.703-18.064,39.99-32.763,52.849 c-0.033,0.029-0.067,0.059-0.1,0.089c-20.012,18.106-45.096,29.223-74.554,33.041c-4.428,0.573-7.552,4.628-6.978,9.055 c0.528,4.076,4.004,7.046,8.008,7.046c0.346,0,0.696-0.023,1.049-0.068c32.764-4.245,60.78-16.708,83.275-37.041 c16.932-14.834,29.182-34.46,37.447-59.993C390.74,377.807,388.412,373.247,384.164,371.873z"/> </g> </g> <g> <g> <path d="M387.504,331.992c-4.465,0-8.084,3.618-8.084,8.083c0,3.687-0.157,7.4-0.465,11.037c-0.377,4.448,2.924,8.361,7.373,8.737 c0.231,0.021,0.461,0.029,0.69,0.029c4.155,0,7.69-3.185,8.046-7.402c0.346-4.087,0.522-8.259,0.523-12.399 C395.587,335.612,391.969,331.993,387.504,331.992z"/> </g> </g> <g> <g> <path d="M262.692,3.545c-1.498-2.203-3.984-3.529-6.647-3.544c-2.698-0.05-5.165,1.284-6.684,3.473 c-7.735,11.139-75.661,122.1-107.098,177.39c-2.208,3.881-0.85,8.817,3.032,11.024c3.879,2.208,8.816,0.85,11.024-3.032 c26.871-47.255,80.389-135.183,99.795-166.02c30.81,46.69,155.644,240.61,155.644,317.241 c0,85.522-69.291,155.167-154.678,155.752c-85.386-0.585-154.678-70.23-154.678-155.752c0-21.433,10.057-54.396,29.89-97.974 c1.85-4.064,0.055-8.857-4.009-10.707c-4.063-1.85-8.857-0.055-10.707,4.01c-20.798,45.695-31.343,80.911-31.343,104.67 c0,93.879,75.637,170.424,169.171,171.901c0.197,0.015,0.396,0.023,0.597,0.023h2.156c0.202,0,0.4-0.008,0.597-0.023 c93.534-1.477,169.171-78.023,169.171-171.901C427.925,248.164,269.438,13.491,262.692,3.545z"/> </g> </g> <g> <g> <path d="M142.809,69.057c-5.488-0.73-19.319-3.786-29.195-16.375c-7.016-8.951-8.701-18.66-9.08-23.651 c-0.321-4.215-3.834-7.471-8.062-7.471c-4.227,0-7.74,3.256-8.062,7.471c-0.38,4.992-2.065,14.701-9.079,23.65 c-9.876,12.592-23.707,15.648-29.196,16.377c-4.018,0.534-7.019,3.96-7.019,8.014s3.002,7.479,7.019,8.014 c5.489,0.73,19.32,3.786,29.195,16.375c7.016,8.951,8.701,18.66,9.08,23.651c0.321,4.215,3.834,7.47,8.062,7.47 c4.226,0,7.74-3.256,8.062-7.471c0.38-4.992,2.065-14.701,9.079-23.65c9.877-12.592,23.708-15.648,29.196-16.376 c4.018-0.534,7.019-3.96,7.019-8.014S146.826,69.591,142.809,69.057z M100.887,91.485c-1.682,2.145-3.144,4.313-4.416,6.475 c-1.273-2.162-2.737-4.331-4.418-6.476c-5.073-6.469-10.882-11.1-16.556-14.414c5.675-3.313,11.485-7.945,16.56-14.415 c1.682-2.145,3.144-4.313,4.416-6.475c1.272,2.162,2.736,4.33,4.416,6.475l0.001,0.001c5.074,6.47,10.883,11.1,16.557,14.414 C111.772,80.384,105.962,85.016,100.887,91.485z"/> </g> </g> <g> <g> <path d="M461.864,69.058c-5.489-0.73-19.32-3.786-29.195-16.375c-7.016-8.951-8.701-18.66-9.08-23.651 c-0.321-4.215-3.834-7.471-8.062-7.471s-7.74,3.256-8.062,7.471c-0.38,4.992-2.065,14.701-9.08,23.651 c-9.876,12.591-23.707,15.647-29.195,16.375c-4.018,0.534-7.019,3.96-7.019,8.014s3.002,7.479,7.019,8.014 c5.489,0.73,19.32,3.786,29.195,16.375c7.016,8.951,8.701,18.66,9.08,23.651c0.321,4.215,3.834,7.471,8.062,7.471 s7.74-3.256,8.062-7.471c0.38-4.992,2.065-14.701,9.079-23.65c9.877-12.592,23.708-15.648,29.196-16.376 c4.018-0.534,7.019-3.96,7.019-8.014S465.882,69.591,461.864,69.058z M419.944,91.485c-1.682,2.145-3.144,4.313-4.416,6.475 c-1.273-2.162-2.737-4.331-4.418-6.476c-5.074-6.469-10.883-11.1-16.557-14.414c5.675-3.313,11.485-7.944,16.557-14.414 l0.001-0.001c1.682-2.145,3.144-4.313,4.416-6.475c1.273,2.162,2.737,4.331,4.418,6.476c5.074,6.469,10.883,11.1,16.557,14.414 C430.829,80.384,425.018,85.016,419.944,91.485z"/> </g> </g> </g>
</svg>