<?xml version="1.0" encoding="utf-8"?>
<!-- Generator: Adobe Illustrator 17.0.0, SVG Export Plug-In . SVG Version: 6.00 Build 0)  -->
<!DOCTYPE svg PUBLIC "-//W3C//DTD SVG 1.1//EN" "http://www.w3.org/Graphics/SVG/1.1/DTD/svg11.dtd">
<svg version="1.1" id="Capa_1" xmlns="http://www.w3.org/2000/svg" xmlns:xlink="http://www.w3.org/1999/xlink" x="0px" y="0px"
	 width="336.111px" height="102.769px" viewBox="0 0 336.111 102.769" enable-background="new 0 0 336.111 102.769"
	 xml:space="preserve">
<g>
	<g>
		<path fill="#FFFFFF" d="M69.263,96.262v-1.41c-0.81,1.32-2.25,2.219-4.289,2.219c-3.299,0-5.698-2.339-5.698-6.718v-2.219
			c0-4.319,2.339-6.658,5.698-6.658c2.1,0,3.539,0.959,4.289,2.219v-7.408c0-0.27,0.21-0.509,0.509-0.509h1.26
			c0.3,0,0.51,0.239,0.51,0.509v19.974c0,0.3-0.21,0.51-0.51,0.51h-1.26C69.473,96.772,69.263,96.562,69.263,96.262 M69.263,90.564
			v-2.729c0-2.669-1.559-4.348-3.868-4.348c-2.4,0-3.839,1.739-3.839,4.528v2.549c0,2.789,1.469,4.499,3.839,4.499
			C67.734,95.063,69.263,93.322,69.263,90.564"/>
		<path fill="#FFFFFF" d="M84.08,95.063c1.14,0,2.759-0.241,3.659-2.549c0.06-0.15,0.18-0.36,0.481-0.36h1.379
			c0.21,0,0.36,0.15,0.36,0.36c0,0.12-0.06,0.24-0.12,0.449c-0.989,3.12-3.688,4.109-5.758,4.109c-3.479,0-6.178-2.459-6.178-6.657
			v-2.279c0-4.198,2.669-6.658,6.148-6.658c3.45,0,6.118,2.519,6.118,6.628v1.499c0,0.3-0.239,0.481-0.54,0.481h-9.447v0.659
			C80.181,93.412,81.861,95.063,84.08,95.063 M87.919,87.865c0-2.789-1.619-4.379-3.869-4.379c-2.219,0-3.868,1.59-3.868,4.379v0.42
			h7.738V87.865z"/>
		<path fill="#FFFFFF" d="M105.855,96.262V76.288c0-0.27,0.21-0.509,0.51-0.509h1.259c0.27,0,0.51,0.239,0.51,0.509v19.974
			c0,0.3-0.24,0.51-0.51,0.51h-1.259C106.064,96.772,105.855,96.562,105.855,96.262"/>
		<path fill="#FFFFFF" d="M120.61,81.477c3.449,0,6.118,2.46,6.118,6.658v2.279c0,4.198-2.669,6.657-6.118,6.657
			c-3.479,0-6.118-2.459-6.118-6.657v-2.279C114.492,83.937,117.131,81.477,120.61,81.477 M120.61,95.063
			c2.25,0,3.868-1.59,3.868-4.499v-2.579c0-2.909-1.619-4.499-3.868-4.499c-2.219,0-3.839,1.59-3.839,4.499v2.579
			C116.772,93.473,118.391,95.063,120.61,95.063"/>
		<path fill="#FFFFFF" d="M132.218,92.993c0-0.09-0.03-0.211,0-0.3c0.06-0.179,0.18-0.3,0.39-0.3h1.289
			c0.27,0,0.36,0.121,0.45,0.361c0.27,1.109,1.289,2.368,3.538,2.368c1.92,0,3.419-0.63,3.419-2.399c0-3.9-8.847-0.78-8.847-7.108
			c0-2.999,2.729-4.138,5.248-4.138c4.619,0,5.219,3.179,5.429,3.989c0,0.03,0.03,0.12,0.03,0.21c-0.03,0.24-0.24,0.39-0.42,0.39
			h-1.289c-0.27,0-0.36-0.12-0.45-0.39c-0.21-0.93-0.69-2.249-3.358-2.249c-1.35,0-2.999,0.48-2.999,2.129
			c0,4.079,8.848,1.02,8.848,7.138c0,3.209-2.58,4.379-5.638,4.379C134.437,97.072,132.518,95.092,132.218,92.993"/>
		<path fill="#FFFFFF" d="M174.986,96.442c0,0.179-0.15,0.329-0.36,0.329h-1.53c-0.27,0-0.42-0.15-0.48-0.329l-1.889-5.279h-9.118
			l-1.859,5.279c-0.09,0.27-0.27,0.329-0.42,0.329h-1.5c-0.21,0-0.36-0.15-0.36-0.329c0-0.15,0.09-0.36,0.21-0.63l7.108-19.554
			c0.09-0.27,0.239-0.481,0.54-0.481h1.709c0.3,0,0.45,0.211,0.54,0.45l7.258,19.763C174.896,96.111,174.986,96.322,174.986,96.442
			 M169.978,89.094l-3.839-10.675l-3.749,10.675H169.978z"/>
		<path fill="#FFFFFF" d="M180.445,96.262V82.286c0-0.269,0.18-0.509,0.48-0.509h1.14c0.3,0,0.54,0.24,0.54,0.509v2.01
			c0.66-1.35,1.979-2.52,4.198-2.52h0.45c0.3,0,0.51,0.24,0.51,0.509v1.23c0,0.3-0.21,0.48-0.51,0.48h-0.45
			c-2.999,0-4.109,2.519-4.109,4.979v7.288c0,0.3-0.239,0.51-0.509,0.51h-1.26C180.626,96.772,180.445,96.562,180.445,96.262"/>
		<path fill="#FFFFFF" d="M193.672,96.262V82.286c0-0.269,0.18-0.509,0.48-0.509h1.14c0.3,0,0.54,0.24,0.54,0.509v2.01
			c0.66-1.35,1.979-2.52,4.198-2.52h0.45c0.3,0,0.509,0.24,0.509,0.509v1.23c0,0.3-0.209,0.48-0.509,0.48h-0.45
			c-2.999,0-4.109,2.519-4.109,4.979v7.288c0,0.3-0.239,0.51-0.509,0.51h-1.26C193.852,96.772,193.672,96.562,193.672,96.262"/>
		<path fill="#FFFFFF" d="M211.996,81.477c3.449,0,6.118,2.46,6.118,6.658v2.279c0,4.198-2.669,6.657-6.118,6.657
			c-3.479,0-6.118-2.459-6.118-6.657v-2.279C205.878,83.937,208.517,81.477,211.996,81.477 M211.996,95.063
			c2.25,0,3.868-1.59,3.868-4.499v-2.579c0-2.909-1.619-4.499-3.868-4.499c-2.219,0-3.839,1.59-3.839,4.499v2.579
			C208.157,93.473,209.777,95.063,211.996,95.063"/>
		<path fill="#FFFFFF" d="M236.08,82.107c0,0.12-0.06,0.329-0.15,0.54l-6.328,16.105c-1.05,2.699-1.949,4.018-5.009,4.018h-1.259
			c-0.27,0-0.48-0.21-0.48-0.509v-1.11c0-0.3,0.21-0.54,0.48-0.54h1.169c1.92,0,2.579-0.959,3.059-2.279l0.63-1.74l-5.548-13.885
			c-0.12-0.271-0.18-0.45-0.18-0.6c0-0.18,0.15-0.331,0.33-0.331h1.529c0.18,0,0.42,0.12,0.54,0.451l4.529,11.636l4.319-11.697
			c0.12-0.299,0.3-0.39,0.509-0.39h1.53C235.96,81.776,236.08,81.926,236.08,82.107"/>
		<path fill="#FFFFFF" d="M246.458,81.477c3.449,0,6.118,2.46,6.118,6.658v2.279c0,4.198-2.669,6.657-6.118,6.657
			c-3.479,0-6.118-2.459-6.118-6.657v-2.279C240.34,83.937,242.979,81.477,246.458,81.477 M246.458,95.063
			c2.249,0,3.868-1.59,3.868-4.499v-2.579c0-2.909-1.619-4.499-3.868-4.499c-2.219,0-3.839,1.59-3.839,4.499v2.579
			C242.619,93.473,244.238,95.063,246.458,95.063"/>
		<path fill="#FFFFFF" d="M258.065,92.993c0-0.09-0.03-0.211,0-0.3c0.06-0.179,0.18-0.3,0.39-0.3h1.289
			c0.27,0,0.36,0.121,0.45,0.361c0.27,1.109,1.289,2.368,3.539,2.368c1.919,0,3.419-0.63,3.419-2.399c0-3.9-8.848-0.78-8.848-7.108
			c0-2.999,2.729-4.138,5.248-4.138c4.619,0,5.218,3.179,5.428,3.989c0,0.03,0.03,0.12,0.03,0.21c-0.03,0.24-0.24,0.39-0.42,0.39
			h-1.29c-0.27,0-0.36-0.12-0.449-0.39c-0.211-0.93-0.69-2.249-3.359-2.249c-1.35,0-2.999,0.48-2.999,2.129
			c0,4.079,8.848,1.02,8.848,7.138c0,3.209-2.579,4.379-5.638,4.379C260.284,97.072,258.365,95.092,258.065,92.993"/>
	</g>
	<path fill="#2589FF" d="M19.975,22.636c-5.543-1.55-9.922-2.774-9.922-7.148c0-3.971,2.265-5.518,8.079-5.518
		c6.021,0,7.233,3.013,7.616,5.636c0.003,0.018,0.005,0.035,0.009,0.053c0.281,1.309,1.16,2.06,2.414,2.06h4.042
		c1.341,0,2.432-1.061,2.432-2.365c0-6.678-5.064-13.415-16.379-13.415c-10.838,0-17.053,4.939-17.053,13.549
		c0,10.875,8.714,13.322,15.715,15.289c6.089,1.711,9.822,2.964,9.822,7.014c0,4.329-2.659,6.26-8.618,6.26
		c-7.897,0-9.225-5.23-9.43-7.487c-0.104-1.041-0.943-2.148-2.293-2.148H2.365C1.039,34.415,0,35.453,0,36.78
		c0,6.151,4.829,15.302,18.131,15.302c8.44,0,17.457-3.755,17.457-14.291C35.589,27.002,26.932,24.582,19.975,22.636"/>
	<path fill="#2589FF" d="M53.845,15.415c-11.119,0-12.632,7.284-13.121,9.646c-0.064,0.257-0.159,0.754-0.159,1.006
		c0,1.176,0.881,2.028,2.095,2.028h4.244c0.688,0,1.603-0.284,2.053-1.635c0.009-0.024,0.016-0.048,0.021-0.073
		c0.416-1.781,1.038-3.143,4.866-3.143c4.057,0,5.788,1.751,5.788,5.855v0.937h-6.125c-9.528,0-14.358,3.72-14.358,11.056
		c0,6.881,4.36,10.99,11.663,10.99h1.078c3.155,0,5.928-1.034,7.753-2.804c0.114,1.211,1.107,2.13,2.354,2.13h3.638
		c1.326,0,2.365-1.038,2.365-2.364V29.301C68.001,25.867,68.001,15.415,53.845,15.415 M59.633,37.858
		c0,3.566-0.767,6.866-6.327,6.866h-1.078c-1.759,0-4.71-0.472-4.71-3.632c0-2.953,1.736-4.103,6.192-4.103h5.923V37.858z"/>
	<path fill="#2589FF" d="M174.393,11.809c-3.01,0-5.195,2.185-5.195,5.195c0,3.01,2.184,5.195,5.195,5.195
		c3.049,0,5.262-2.184,5.262-5.195C179.655,13.994,177.441,11.809,174.393,11.809"/>
	<path fill="#2589FF" d="M176.482,25.689h-4.11c-1.348,0-2.364,1.045-2.364,2.432v20.921c0,1.326,1.038,2.365,2.364,2.365h4.11
		c1.326,0,2.365-1.039,2.365-2.365V28.122C178.847,26.735,177.83,25.689,176.482,25.689"/>
	<path fill="#2589FF" d="M201.239,23.243c3.322,0,5.412,1.76,6.216,5.245c0.259,1.035,0.988,1.628,2.003,1.628h4.582
		c1.132,0,1.893-0.761,1.893-1.893c0-0.214-0.039-0.42-0.087-0.681c-0.018-0.098-0.038-0.207-0.069-0.376
		c-1.629-7.139-7.336-11.751-14.539-11.751c-8.749,0-15.099,6.804-15.099,16.177v4.379c0,9.485,6.237,16.11,15.166,16.11
		c8.449,0,13.428-6.003,14.469-11.533c0.084-0.339,0.091-0.782,0.091-1.208c0-1.118-0.814-1.96-1.893-1.96h-4.649
		c-0.978,0-1.742,0.654-1.94,1.647c-0.789,3.517-2.776,5.226-6.078,5.226c-4.027,0-6.529-2.864-6.529-7.473v-6.064
		C194.777,26.107,197.254,23.243,201.239,23.243"/>
	<path fill="#2589FF" d="M237.455,15.415c-9.009,0-15.301,6.653-15.301,16.177v4.379c0,9.485,6.292,16.11,15.301,16.11
		c9.009,0,15.301-6.625,15.301-16.11v-4.379C252.756,22.067,246.464,15.415,237.455,15.415 M243.849,36.779
		c0,4.68-2.39,7.473-6.394,7.473c-3.985,0-6.462-2.864-6.462-7.473v-6.064c0-4.609,2.477-7.472,6.462-7.472
		c4.004,0,6.394,2.793,6.394,7.472V36.779z"/>
	<path fill="#2589FF" d="M265.894,2.613h-4.11c-1.348,0-2.364,1.045-2.364,2.432v43.998c0,1.326,1.039,2.364,2.364,2.364h4.11
		c1.326,0,2.365-1.038,2.365-2.364V5.045C268.259,3.658,267.242,2.613,265.894,2.613"/>
	<path fill="#2589FF" d="M288.466,15.415c-11.119,0-12.631,7.284-13.121,9.646c-0.064,0.257-0.159,0.754-0.159,1.006
		c0,1.176,0.882,2.028,2.095,2.028h4.245c0.687,0,1.602-0.284,2.053-1.635c0.008-0.024,0.015-0.048,0.02-0.073
		c0.416-1.781,1.038-3.143,4.866-3.143c4.057,0,5.788,1.751,5.788,5.855v0.937h-6.125c-9.527,0-14.358,3.72-14.358,11.056
		c0,6.881,4.361,10.99,11.664,10.99h1.077c3.155,0,5.929-1.034,7.753-2.804c0.115,1.211,1.107,2.13,2.353,2.13h3.638
		c1.326,0,2.365-1.038,2.365-2.364V29.301C302.622,25.867,302.622,15.415,288.466,15.415 M294.254,37.858
		c0,3.566-0.767,6.866-6.327,6.866h-1.078c-1.759,0-4.71-0.472-4.71-3.632c0-2.953,1.736-4.103,6.192-4.103h5.923V37.858z"/>
	<path fill="#2589FF" d="M323.837,29.78c-4.212-0.957-6.794-1.665-6.794-4.049c0-2.334,2.562-2.824,4.71-2.824
		c3.96,0,4.921,1.763,5.567,3.574c0.297,0.818,0.7,1.615,2.046,1.615h4.177c1.081,0,1.914-0.773,2.024-1.879
		c0.002-0.027,0.004-0.055,0.004-0.081c0-0.396-0.073-0.889-0.165-1.16c-0.793-2.875-3.684-9.56-13.385-9.56
		c-8.358,0-13.549,4.082-13.549,10.652c0,8.677,7.273,10.256,12.582,11.409c4.063,0.881,6.553,1.532,6.553,3.684
		c0,1.472-0.566,3.429-5.451,3.429c-3.32,0-5.344-1.313-6.016-3.904c-0.005-0.018-0.01-0.036-0.016-0.053
		c-0.347-1.041-1.038-1.568-2.053-1.568h-4.178c-1.104,0-1.914,0.751-1.958,1.8c-0.073,0.406,0,0.865,0.081,1.201
		c0.836,4.991,5.506,10.016,14.073,10.016c8.91,0,14.021-4.055,14.021-11.124C336.111,32.569,329.305,31.022,323.837,29.78"/>
	<path fill="#2589FF" d="M111.203,59.536c-3.124,0-5.738-2.038-5.738-12.09V31.592c0-10.281-4.766-16.177-13.077-16.177
		c-3.604,0-6.352,0.991-8.483,3.087c-0.01-1.377-1.023-2.413-2.365-2.413h-4.11c-1.348,0-2.364,1.045-2.364,2.432v30.522
		c0,1.326,1.039,2.364,2.364,2.364h4.11c1.326,0,2.365-1.038,2.365-2.364V30.716c0-4.679,2.365-7.472,6.327-7.472
		c4.003,0,6.394,2.793,6.394,7.472v16.73c0,2.246-1.248,21.426,14.918,21.426c2.407,0,5.502-0.913,5.502-5.191
		C117.045,60.487,114.327,59.536,111.203,59.536"/>
	<path fill="#2589FF" d="M159.606,2.613h-3.908c-1.348,0-2.364,1.045-2.364,2.432v29.408l-18.146-30.14
		c-0.438-0.851-1.384-1.7-2.532-1.7h-5.188c-1.348,0-2.365,1.045-2.365,2.432v25.576c0,9.888-2.622,11.892-5.695,11.892
		c-3.073,0-5.745,0.935-5.745,4.075c0,4.209,3.044,5.106,5.411,5.106c15.9,0,14.734-18.864,14.734-21.074V17.87l18.967,31.32
		c1.214,2.047,2.21,2.219,3.127,2.219h3.705c1.386,0,2.432-1.017,2.432-2.364V5.045C162.038,3.658,160.992,2.613,159.606,2.613"/>
	<path fill="#2589FF" d="M283.218,11.161c0.214,0.036,0.435,0.051,0.66,0.044c2.421-0.068,4.785-0.557,7.029-1.456
		c2.242-0.898,4.291-2.176,6.089-3.797c1.402-1.263,1.513-3.423,0.25-4.824c-1.263-1.401-3.423-1.513-4.824-0.25
		c-1.199,1.08-2.563,1.931-4.055,2.529c-1.492,0.598-3.067,0.924-4.68,0.969c-1.886,0.053-3.372,1.625-3.319,3.51
		C280.414,9.548,281.638,10.898,283.218,11.161"/>
</g>
</svg>
